<svg version="1" xmlns="http://www.w3.org/2000/svg" width="933.333" height="933.333" viewBox="0 0 700 700"><path d="M383 305v84l31.9-.1c24.1 0 32-.3 32.3-1.2.3-.7.4-6.9.3-14l-.2-12.7h3.6c27.7-.1 55.3-21.8 64-50.5 1.9-6.6 2.4-10.1 2.4-20-.1-10.7-.4-13-3-20.7-5.4-15.8-14.6-27.8-27.8-36.7-16.2-10.8-23.6-12.1-68.5-12.1h-35v84zm-259.9-76.5c-1.7 3.6-3.1 6.8-3.1 7 0 .2-1.8 4.1-3.9 8.7-8 16.7-65.1 143-65.1 143.9 0 .8 149.7 1.2 151.1.4.4-.3-.6-3.1-2.1-6.2-1.5-3.2-12.8-27.9-24.9-54.8-12.2-27-22.6-49.7-23-50.5-.4-.8-6.1-13.2-12.6-27.5-6.4-14.3-12.1-26.4-12.5-26.9-.5-.4-2.2 2.2-3.9 5.9zm167.9-1.9c-1.3 2.7-4.2 9.1-6.6 14.2-2.4 5.1-4.4 9.5-4.4 9.7 0 .2-1.6 3.9-3.6 8.2-4.6 9.9-8.5 18.4-11.4 24.8-2.6 5.7-10.8 23.9-15.2 33.5-1.7 3.6-4.9 10.8-7.3 16-2.4 5.2-5.5 12.2-7 15.5-12.6 27.7-17.5 38.8-17.5 39.6 0 .5 33.3.9 75.5.9 46.3 0 75.5-.3 75.5-.9 0-1-17.5-40-33.5-74.6-1.3-2.8-7.8-17.2-14.5-32-6.7-14.9-13.8-30.4-15.7-34.5-1.9-4.1-5.1-11.1-7-15.5-1.9-4.4-3.9-8.4-4.3-8.9-.5-.4-1.8 1.4-3 4zm279.6.6c-1.3 2.9-4.5 9.8-6.9 15.3-2.5 5.5-6 13.4-8 17.5-1.9 4.1-9.1 19.9-16 35-13.4 29.4-16.4 36.1-20.7 45.5-5.4 11.6-19.3 42-20.6 45.2l-1.4 3.2h76c41.8 0 76-.3 76-.8 0-.7-12-27.5-33.7-75.1-1.4-3-10.4-22.8-20-44-19.9-43.9-21.3-47-21.9-47-.2 0-1.4 2.4-2.8 5.2zM402.5 412.1c-5.6 1.2-10 3.6-14.2 7.9-2.4 2.3-4.3 4.6-4.3 5 0 .4 1.7 1.9 3.9 3.3l3.9 2.6 2.8-3.1c3.8-4 7.5-5.8 11.8-5.8 7.5 0 11.5 4.5 10.2 11.5-.8 4.1-3.3 6.6-13.6 13.9-13.3 9.4-18.1 15.5-19.4 24.7-.5 3.4-.3 4.8.6 5.1 1.1.3 38.6.2 42.4-.1.7-.1 1.2-2.1 1.2-4.6.1-3.6-.2-4.5-1.6-4.6-.9-.1-8-.2-15.6-.3-9.1-.1-14.1-.5-14.3-1.2-.6-1.7 6.4-8.3 15.3-14.6 13.3-9.3 17-15.6 15.2-25.8-1-5.3-3.3-8.8-7.6-11.3-3.7-2.2-12.4-3.6-16.7-2.6zm217-.1c-15.2 2.4-21.2 17.3-10.8 26.7 1.9 1.8 4.1 3.3 4.9 3.3 2.5 0 1.5 1.5-3.1 4.4-6.8 4.2-9.9 8.8-9.8 14.5 0 2.5.8 6.1 1.7 7.9 6.5 12.6 35.1 13.6 44.4 1.4 2.2-2.9 2.7-4.6 2.7-9.3 0-7-1.9-10.1-9.3-14.5l-5.2-3.1 4-2.8c6.5-4.5 8.5-8.8 7.4-15.7-1.4-9-13.8-14.9-26.9-12.8zm14.8 12.1c2.1 2.7 2.2 5.3 0 8.9-2.3 3.9-7.2 6.5-10.8 5.6-3.8-1-9.5-6.8-9.5-9.8.1-3.6 3.1-6.7 7.5-7.6 5.2-1.1 10.5.1 12.8 2.9zm1.4 30.1c7.7 7.3.1 16.7-12.6 15.4-13.8-1.3-15.9-12-3.9-19.2l5.2-3.2 4.5 2.5c2.5 1.3 5.6 3.3 6.8 4.5zm-160.4-40.5c-10.2 3.5-16.5 15.5-16.5 31.3 0 17.6 6.3 29 17.7 32.3 15.7 4.5 29-4.7 32-22.3 2.9-17.3-2.4-34.2-12.7-40-5.2-2.9-14.2-3.5-20.5-1.3zm17.2 11.6c4.2 4.2 5.8 10 5.8 20.9 0 14.1-4 21.4-12.2 22.5-11.1 1.5-17.3-8.2-16.6-25.9.6-13.8 5.5-20.8 14.7-20.8 4.3 0 5.4.4 8.3 3.3zm56-10.2c-2.2 1-5 1.9-6.2 1.9-2.1 0-2.3.5-2.3 5v5.1l3.8-.7c2-.4 4.6-1 5.8-1.4 2-.8 2-.6 2 20.9l-.1 21.6-5.7.3c-3.2.2-5.8.7-5.9 1.2-.1.6-.1 1.9-.1 3 0 6-1.3 5.6 16.7 5.6H573v-9.5l-5.2-.3-5.3-.3-.1-26c-.1-14.3-.2-26.6-.3-27.3-.2-1.9-8.9-1.3-13.6.9z"/></svg>