<svg xmlns="http://www.w3.org/2000/svg" viewBox="0 0 512.02 512.02"><path d="M61.813 4.424c33.545 0 61.793 28.248 61.793 61.793 0 35.31-30.014 62.676-61.793 61.793C29.151 128.893.02 101.527.02 66.217-.863 31.789 27.386 4.424 61.813 4.424m34.428 503.172H25.62c-9.71 0-17.655-7.945-17.655-17.655V180.976c0-9.71 7.062-17.655 16.772-17.655H96.24c9.71 0 17.655 7.945 17.655 17.655v309.848c.001 8.827-7.944 16.772-17.654 16.772m414.896-236.579c0-65.324-48.552-116.524-113.876-116.524h-18.538c-35.31 0-69.738 16.772-88.276 44.138l-8.828 8.828v-35.31c0-3.531-5.297-8.828-8.828-8.828h-88.276c-3.531 0-8.828 3.531-8.828 7.945v329.269c0 3.531 5.297 7.062 8.828 7.062h97.103c3.531 0 8.828-3.531 8.828-7.062V309.858c0-32.662 24.717-60.028 57.379-60.91 16.772 0 31.779 6.179 43.255 17.655 10.593 10.593 15.007 25.6 15.007 42.372v189.793c0 3.531 5.297 8.828 8.828 8.828h88.276c3.531 0 8.828-5.297 8.828-8.828V271.017h-.882z" fill="#007aaa"/></svg>