<svg id="Layer_1" xmlns="http://www.w3.org/2000/svg" viewBox="0 0 512.1 295.6"><style>.st0{fill:#6b478e}</style><path class="st0" d="M18.1 84.8L31 134.2c2.8 10.8 5.4 20.9 7.2 30.9h.6c2.2-9.8 5.4-20.3 8.6-30.7l15.9-49.6H78l15.1 48.6c3.6 11.6 6.4 21.9 8.6 31.7h.6c1.6-9.8 4.2-20.1 7.5-31.5l13.8-48.8h17.5l-31.3 97.1H93.7l-14.9-46.4c-3.4-10.8-6.2-20.4-8.6-31.9h-.4c-2.4 11.6-5.4 21.7-8.8 32.1l-15.7 46.2h-16L0 84.8h18.1zm150 0l12.9 49.4c2.8 10.8 5.4 20.9 7.2 30.9h.6c2.2-9.8 5.4-20.3 8.6-30.7l15.9-49.6H228l15.1 48.6c3.6 11.6 6.4 21.9 8.6 31.7h.6c1.6-9.8 4.2-20.1 7.5-31.5l13.8-48.8h17.5l-31.3 97.1h-16.1l-14.9-46.4c-3.4-10.8-6.2-20.4-8.6-31.9h-.4c-2.4 11.6-5.4 21.7-8.8 32.1l-15.7 46.2h-16L150 84.8h18.1zm150 0l12.8 49.4c2.8 10.8 5.4 20.9 7.2 30.9h.6c2.2-9.8 5.5-20.3 8.7-30.7l15.8-49.6h14.9l15.1 48.6c3.6 11.6 6.4 21.9 8.6 31.7h.6c1.6-9.8 4.2-20.1 7.4-31.5l13.9-48.8h17.4l-31.3 97.1h-16l-14.9-46.4c-3.4-10.8-6.2-20.4-8.6-31.9h-.4c-2.4 11.6-5.5 21.7-8.8 32.1l-15.6 46.2h-16.1L300 84.8h18.1z"/><path class="st0" d="M366.4 260.8c-41.6 0-81.1-20.1-105.6-53.8l11.6-8.4c21.8 30 56.9 48 94 48 64 0 116-52.1 116-116s-52.1-116-116-116c-42.9 0-82.2 23.6-102.4 61.5l-12.7-6.8C274.1 26.5 318.2 0 366.4 0c71.9 0 130.4 58.5 130.4 130.4s-58.5 130.4-130.4 130.4z"/><path transform="rotate(-44.936 476.42 259.864)" class="st0" d="M469.3 216.6h14.3v86.6h-14.3z"/></svg>