<svg xmlns="http://www.w3.org/2000/svg" viewBox="0 0 14 14"><path d="M1.8 2.2V.4c0-.2.1-.4.4-.4.2 0 .4.2.4.4v1.8c0 .2-.2.4-.4.4-.3 0-.4-.2-.4-.4zm7.4.4c.2 0 .4-.2.4-.4V.4c0-.2-.2-.4-.4-.4-.3 0-.5.2-.5.4v1.8c0 .2.2.4.5.4zm4.8 7.9c0 1.9-1.6 3.5-3.5 3.5S7 12.4 7 10.5 8.6 7 10.5 7 14 8.6 14 10.5zm-.9 0c0-1.4-1.2-2.6-2.6-2.6-1.4 0-2.6 1.2-2.6 2.6 0 1.4 1.2 2.6 2.6 2.6 1.4 0 2.6-1.2 2.6-2.6zM3.5 5.3H1.8V7h1.8l-.1-1.7zM1.8 9.6h1.8V7.9H1.8v1.7zM4.4 7h1.8V5.3H4.4V7zm0 2.6h1.8V7.9H4.4v1.7zm-3.5.8v-6h9.6v1.8h.9V2.7c0-.5-.4-1-.9-1h-.4v.4c0 .5-.4.9-.9.9s-.9-.4-.9-.9v-.4H3.1v.4c0 .5-.4.9-.9.9s-.9-.4-.9-.9v-.4H.9c-.5 0-.9.5-.9 1v7.7c0 .5.4 1 .9 1h5.2v-.9l-5.2-.1c0 .1 0 .1 0 0zM8.7 7V5.3H7V7h1.7zm3.1 3.5h-1.3V9.2c0-.2-.2-.4-.4-.4s-.5.1-.5.4V11c0 .2.2.4.4.4h1.8c.2 0 .4-.2.4-.4.1-.3-.1-.5-.4-.5z" fill="#63d0df"/></svg>