<svg xmlns="http://www.w3.org/2000/svg" viewBox="0 0 511.996 511.996"><path d="M58.631 42.594l196.267 25.6c.367.043.734.068 1.101.068s.734-.026 1.101-.068l186.633-24.346v29.628c-5.35 6.016-17.067 21.026-17.067 37.453 0 18.782 15.309 25.6 25.6 25.6s25.6-6.818 25.6-25.6c0-16.427-11.716-31.437-17.067-37.453V34.129a8.445 8.445 0 0 0-.64-3.183c-.145-.35-.393-.623-.58-.947-.333-.597-.666-1.186-1.126-1.681-.299-.316-.657-.529-.998-.785-.486-.393-.964-.768-1.527-1.041-.418-.205-.862-.29-1.314-.418-.418-.128-.794-.35-1.246-.41L257.101.064a9.54 9.54 0 0 0-2.202 0l-196.267 25.6a8.538 8.538 0 0 0-.001 16.93zm402.167 68.335c0 6.81-4.617 8.405-8.533 8.533-3.917-.128-8.533-1.724-8.533-8.533 0-7.083 4.352-14.985 8.533-20.813 4.181 5.829 8.533 13.731 8.533 20.813zm-204.8-93.798l130.295 16.998-130.295 16.999-130.295-16.999 130.295-16.998zm51.2 238.865c17.237 0 31.394-12.894 33.664-29.525l31.189-23.381a8.527 8.527 0 0 0 1.707-11.947c-2.825-3.772-8.175-4.548-11.947-1.707l-21.751 16.316c-3.251-10.402-12.86-18.022-24.329-18.022h-34.133c-14.114 0-25.6 11.486-25.6 25.6 0-14.114-11.486-25.6-25.6-25.6h-34.133c-11.469 0-21.077 7.62-24.329 18.022l-21.751-16.316c-3.763-2.825-9.122-2.057-11.947 1.707a8.527 8.527 0 0 0 1.707 11.947l31.189 23.381c2.27 16.631 16.418 29.525 33.664 29.525h17.067c18.825 0 34.133-15.309 34.133-34.133 0 18.825 15.309 34.133 34.133 34.133h17.067zm-68.267-34.133c0 9.412-7.663 17.067-17.067 17.067h-17.067c-9.412 0-17.067-7.654-17.067-17.067v-8.533c0-4.702 3.823-8.533 8.533-8.533h34.133c4.71 0 8.533 3.831 8.533 8.533v8.533zm34.134 0v-8.533c0-4.702 3.823-8.533 8.533-8.533h34.133c4.71 0 8.533 3.831 8.533 8.533v8.533c0 9.412-7.654 17.067-17.067 17.067H290.13c-9.411-.001-17.065-7.655-17.065-17.067zm119.117 211.242c-.162-.606-.418-1.152-.7-1.715-.162-.299-.196-.64-.384-.93-.094-.128-.23-.196-.324-.324-.358-.469-.802-.853-1.263-1.246-.41-.375-.811-.742-1.297-1.016-.145-.094-.23-.23-.393-.316L353.688 410.5a8.522 8.522 0 0 0-8.55.529l-51.209 34.133a8.535 8.535 0 0 0-3.797 7.1v30.259c-5.077 4.062-17.544 12.407-34.133 12.407-16.427 0-29.013-8.388-34.133-12.433v-30.234a8.535 8.535 0 0 0-3.797-7.1l-51.2-34.133a8.522 8.522 0 0 0-8.55-.529l-34.133 17.058c-.154.077-.239.213-.375.299-.512.29-.939.674-1.374 1.075-.427.376-.853.734-1.186 1.178-.102.137-.256.213-.35.35-.205.307-.239.657-.401.981-.265.538-.521 1.058-.674 1.638-.137.538-.171 1.05-.205 1.596-.034.538-.06 1.058.009 1.604.068.597.265 1.143.461 1.707.119.341.111.7.273 1.024.077.154.222.247.307.393.282.495.666.913 1.058 1.348.384.427.742.853 1.186 1.195.137.102.213.256.35.35l51.2 34.133a8.496 8.496 0 0 0 4.727 1.434 8.517 8.517 0 0 0 7.108-3.797c2.62-3.925 1.562-9.225-2.364-11.836l-38.972-25.975 16.555-8.277 43.281 28.851v29.568c0 2.261.896 4.437 2.5 6.033.802.802 19.9 19.567 48.7 19.567s47.898-18.765 48.7-19.567a8.546 8.546 0 0 0 2.5-6.033v-29.568l43.29-28.851 16.546 8.269-38.972 25.984c-3.925 2.611-4.983 7.91-2.364 11.836a8.517 8.517 0 0 0 7.108 3.797 8.496 8.496 0 0 0 4.727-1.434l51.2-34.133c.137-.094.205-.239.333-.333.478-.358.853-.802 1.254-1.254.358-.427.725-.811.998-1.289.085-.154.239-.247.316-.41.179-.35.179-.725.299-1.084.179-.538.367-1.05.435-1.613.077-.58.051-1.126.009-1.698-.035-.511-.061-.998-.197-1.51z"/><path d="M427.271 404.237a8.549 8.549 0 0 0 7.927 5.359 8.458 8.458 0 0 0 3.166-.614c4.378-1.741 6.502-6.707 4.762-11.085-.171-.41-16.461-41.719-16.461-82.167v-68.267c0-72.704-37.265-92.169-38.852-92.962a8.497 8.497 0 0 0-8.294.367 8.546 8.546 0 0 0-4.053 7.262v34.133c0 32.273-24.695 98.569-33.237 115.652-7.654 15.317-48.154 63.548-86.229 63.548s-78.575-48.23-86.238-63.548c-8.533-17.084-33.229-83.379-33.229-115.652V162.13c0-2.961-1.536-5.7-4.053-7.262s-5.658-1.69-8.294-.367c-1.587.794-38.852 20.258-38.852 92.962v68.267c0 40.448-16.29 81.758-16.461 82.167-1.741 4.378.384 9.344 4.762 11.085 4.361 1.741 9.344-.375 11.093-4.745.717-1.809 17.672-44.698 17.672-88.508v-68.267c0-34.603 9.02-54.707 17.067-65.766v14.566c0 36.625 26.871 106.965 35.029 123.281 10.385 20.77 55.834 72.986 101.504 72.986s91.119-52.216 101.495-72.986c8.166-16.316 35.038-86.656 35.038-123.281v-14.549c8.064 11.068 17.067 31.164 17.067 65.749v68.267c-.002 43.81 16.954 86.699 17.671 88.508z"/><path d="M275.667 309.602c-.273.247-6.707 6.127-19.669 6.127-12.774 0-19.209-5.709-19.652-6.118-3.319-3.251-8.67-3.226-11.981.085a8.523 8.523 0 0 0 0 12.066c1.126 1.126 11.605 11.034 31.633 11.034s30.507-9.907 31.633-11.034c3.294-3.294 3.285-8.567.051-11.913-3.251-3.344-8.61-3.438-12.015-.247zm235.887 191.164c-.751-2.27-19.371-55.851-91.358-73.847-4.574-1.161-9.199 1.638-10.342 6.204a8.536 8.536 0 0 0 6.212 10.351c62.524 15.633 78.66 60.809 79.309 62.686 1.186 3.576 4.514 5.837 8.09 5.837a8.55 8.55 0 0 0 2.697-.435c4.471-1.495 6.886-6.324 5.392-10.796zm-119.023-372.77V68.263c0-4.71-3.814-8.533-8.533-8.533s-8.533 3.823-8.533 8.533v54.212c-14.114 5.982-58.778 22.588-119.467 22.588s-105.353-16.606-119.467-22.588V68.263c0-4.71-3.814-8.533-8.533-8.533s-8.533 3.823-8.533 8.533v59.733a8.541 8.541 0 0 0 4.719 7.637c2.167 1.075 53.897 26.496 131.814 26.496s129.647-25.421 131.814-26.496a8.541 8.541 0 0 0 4.719-7.637zM91.8 426.919C19.813 444.916 1.193 498.497.442 500.766c-1.493 4.471.922 9.301 5.393 10.795a8.481 8.481 0 0 0 2.697.435c3.575 0 6.903-2.261 8.09-5.837.162-.469 16.316-46.942 79.309-62.686a8.535 8.535 0 0 0 6.212-10.351c-1.144-4.565-5.778-7.364-10.343-6.203z"/></svg>