<svg xmlns="http://www.w3.org/2000/svg" viewBox="0 0 59 53"><path d="M58.9 8.5V0H42.7v3.6h-5.5V11H33V7.4H16.7V16H33v-3.6h4.2V26H33v-3.6H16.7V26H8.9V14.7H0v23.7h9V27.2h7.8v3.6H33v-3.6h4.2v13.6H33v-3.6H16.7v8.5H33v-3.6h4.2v7.2h5.5V53H59v-8.5H42.7v3.7h-4.2V34.7h4.2v3.7H59v-8.5H42.7v3.6h-4.2V19.8h4.2v3.6H59v-8.5H42.7v3.6h-4.2V4.9h4.2v3.6h16.2zm-27.2 6.2H18v-6h13.6c.1 0 .1 6 .1 6zM7.6 37H1.3V16h6.4l-.1 21zm24.1-7.5H18v-5.9h13.6c.1 0 .1 5.9.1 5.9zm0 15H18v-5.9h13.6c.1-.1.1 5.9.1 5.9zM44 45.8h13.6v5.9H44v-5.9zm0-14.7h13.6V37H44v-5.9zm0-14.9h13.6v5.9H44v-5.9zm0-14.9h13.6v5.9H44V1.3z"/></svg>