<svg xmlns="http://www.w3.org/2000/svg" width="32" height="32"><path d="M6.501 6.249c.44.335.892.654 1.361.939A19.39 19.39 0 0 0 7.221 9h1.927c.11-.322.215-.649.34-.955.893.409 1.824.721 2.779.955h7.471a15.18 15.18 0 0 0 2.812-.972c.125.31.229.644.343.972h1.891c-.189-.629-.4-1.235-.641-1.812.471-.285.924-.604 1.36-.939.84.818 1.572 1.743 2.179 2.751h2.688c-2.604-5.318-8.057-9-14.368-9C9.689 0 4.238 3.682 1.635 9h2.686a13.697 13.697 0 0 1 2.18-2.751zm17.608-1.176c-.246.176-.493.349-.75.509a13.644 13.644 0 0 0-1.041-1.646c.632.33 1.226.715 1.791 1.137zm-2.315 1.349c-.808.371-1.64.67-2.496.88-.239-1.728-.584-3.396-1.075-4.672 1.382.699 2.606 2.025 3.571 3.792zM15.82 2.379c.061-.001.12-.008.182-.008s.121.007.182.008c.438.717.965 2.507 1.354 5.229-.509.06-1.021.098-1.535.098-.517 0-1.028-.038-1.535-.098.387-2.722.914-4.512 1.352-5.229zm-2.049.279c-.485 1.272-.827 2.927-1.065 4.645-.843-.206-1.661-.5-2.453-.86.961-1.751 2.168-3.077 3.518-3.785zM9.684 3.936c-.374.502-.719 1.06-1.042 1.646a13.875 13.875 0 0 1-.749-.508 13.2 13.2 0 0 1 1.791-1.138zm15.819 21.816a16.225 16.225 0 0 0-1.36-.941c.237-.574.45-1.182.641-1.811h-1.891c-.109.328-.216.66-.341.971A15.413 15.413 0 0 0 19.739 23h-7.47c-.955.234-1.885.547-2.778.955-.127-.307-.231-.635-.342-.955H7.223c.189.629.401 1.236.64 1.812-.47.285-.921.604-1.361.938A13.641 13.641 0 0 1 4.325 23H1.638c2.603 5.316 8.054 9 14.366 9 6.312 0 11.764-3.684 14.367-9h-2.688a13.76 13.76 0 0 1-2.18 2.752zm-17.61 1.176c.246-.176.494-.35.749-.508a14.37 14.37 0 0 0 1.042 1.645 13.391 13.391 0 0 1-1.791-1.137zm2.358-1.369c.792-.356 1.61-.653 2.453-.858.238 1.719.58 3.368 1.065 4.645-1.348-.711-2.555-2.039-3.518-3.787zm5.933 4.062c-.061.002-.12.008-.182.008s-.121-.006-.182-.008c-.438-.717-.966-2.508-1.354-5.229.507-.06 1.019-.099 1.535-.099.517 0 1.028.039 1.536.099-.391 2.721-.915 4.512-1.353 5.229zm2.039-.252c.491-1.275.836-2.943 1.075-4.672.856.211 1.688.51 2.496.881-.965 1.768-2.189 3.094-3.571 3.791zm4.095-1.305c.375-.504.722-1.062 1.041-1.646.257.16.504.334.75.51-.565.422-1.159.806-1.791 1.136zM4.795 19.18l.637-2.236c.169-.596.299-1.183.416-1.977h.026c.13.78.247 1.354.403 1.977l.598 2.236h1.859l1.95-6.355H8.748l-.546 2.521a31.607 31.607 0 0 0-.364 2.171h-.026c-.13-.729-.299-1.441-.468-2.158l-.637-2.534h-1.56l-.676 2.612a31.411 31.411 0 0 0-.468 2.08h-.026a40.774 40.774 0 0 0-.364-2.094l-.507-2.601H1.09l1.846 6.357h1.859v.001zm13.519-3.836a29.8 29.8 0 0 0-.362 2.172h-.027c-.129-.729-.299-1.442-.467-2.159l-.64-2.534h-1.56l-.676 2.612a31.446 31.446 0 0 0-.468 2.081h-.026a40.817 40.817 0 0 0-.364-2.095l-.507-2.601h-2.015l1.846 6.357h1.859l.637-2.235c.169-.599.299-1.184.416-1.978h.026c.13.78.248 1.354.404 1.978l.598 2.235h1.859l1.947-6.357h-1.938l-.542 2.524zm10.116 0a30.36 30.36 0 0 0-.363 2.172h-.025c-.129-.729-.3-1.442-.469-2.159l-.637-2.534h-1.562l-.677 2.612c-.155.624-.338 1.353-.469 2.081h-.024a40.842 40.842 0 0 0-.363-2.095l-.508-2.601h-2.017l1.849 6.357h1.856l.64-2.235c.168-.599.299-1.184.416-1.978h.024c.129.78.246 1.354.402 1.978l.598 2.235h1.859l1.949-6.357h-1.938l-.541 2.524z"/></svg>