<svg id="Layer_1" xmlns="http://www.w3.org/2000/svg" viewBox="0 0 508 508"><style>.st1{fill:#fff}.st2{fill:#636cb2}.st3{fill:#ddd}.st4{fill:#999}.st5{fill:#e6e9ee}</style><circle cx="254" cy="254" r="254" fill="#6b478e"/><path class="st1" d="M406.8 118H135.2c-9.6 0-17.2 7.6-17.2 17.2V346c0 9.6 7.6 17.2 17.2 17.2h271.6c9.6 0 17.2-7.6 17.2-17.2V134.8c0-9.2-7.6-16.8-17.2-16.8z"/><path class="st2" d="M406.8 108.8H135.2c-9.6 0-17.2 7.6-17.2 17.2v40.8h306V126c0-9.2-7.6-17.2-17.2-17.2z"/><path class="st3" d="M234.4 183.6h24.4V208h-24.4zm48.8 0h24.4V208h-24.4zm48.8 0h24.4V208H332zM186 228h24.4v24.4H186z"/><path class="st4" d="M234.4 228h24.4v24.4h-24.4z"/><path class="st3" d="M283.2 228h24.4v24.4h-24.4zm48.8 0h24.4v24.4H332z"/><path class="st5" d="M186 272.8h24.4v24.4H186z"/><path class="st3" d="M234.4 272.8h24.4v24.4h-24.4zm48.8 0h24.4v24.4h-24.4z"/><path class="st4" d="M332 272.8h24.4v24.4H332z"/><path class="st5" d="M186 317.2h24.4v24.4H186zm48.4 0h24.4v24.4h-24.4z"/><path class="st3" d="M283.2 317.2h24.4v24.4h-24.4z"/><path d="M171.2 231.2c-50.8 0-92 41.2-92 92s41.2 92 92 92 92-41.2 92-92-41.2-92-92-92z" fill="#63d0df"/><path class="st1" d="M171.2 252c-39.2 0-71.2 32-71.2 71.2s32 71.2 71.2 71.2 71.2-32 71.2-71.2c-.4-39.2-32-71.2-71.2-71.2z"/><path d="M168.4 281.2l-3.2 51.2c-.4 3.2 2 6.4 5.6 6.4s6-2.8 6-6l-3.2-51.6c0-1.2-1.2-2.4-2.4-2.4-1.6.4-2.4 1.2-2.8 2.4z" fill="#2b3b4e"/><path d="M206.4 316.4l-46.8 3.2c-3.2.4-5.6 2.8-5.2 5.6.4 3.2 3.2 5.2 6.4 4.8l46.4-9.2c1.2-.4 2-1.2 1.6-2.4-.4-1.2-1.2-2-2.4-2z" fill="#324a5e"/><circle class="st2" cx="171.2" cy="323.2" r="8.4"/><circle class="st5" cx="171.2" cy="263.2" r="5.6"/><circle class="st5" cx="171.2" cy="380.4" r="5.6"/><circle class="st5" cx="229.6" cy="321.6" r="5.6"/><circle class="st5" cx="112.4" cy="321.6" r="5.6"/><circle class="st5" cx="212.4" cy="280.4" r="5.6"/><circle class="st5" cx="129.6" cy="363.2" r="5.6"/><circle class="st5" cx="212.4" cy="363.2" r="5.6"/><circle class="st5" cx="129.6" cy="280.4" r="5.6"/><circle class="st1" cx="348.4" cy="138.8" r="12.4"/><circle class="st1" cx="194" cy="138.8" r="12.4"/></svg>