<svg xmlns="http://www.w3.org/2000/svg" viewBox="0 0 200 100"><path d="M22 69.6l-4.3-2.9-2.7 2.7q2.1 1.3 4.2 3zm23.8 12.7a61 61 0 0 1-11.7-5.1L31 80.4a62.6 62.6 0 0 0 10.7 5.3c6.1 2.4 10.6 2.4 12.7.2a6.2 6.2 0 0 0 1.4-2.5 24.5 24.5 0 0 1-10-1.1m9.7-46.4a99.3 99.3 0 0 0-13.7-8.2 100.3 100.3 0 0 0 8 13.9zm23.6 12.6a61.6 61.6 0 0 1-11.5-5l-7.5 7.6a69.9 69.9 0 0 0 10.6 5.3c6 2.3 10.5 2.4 12.6.2s1.9-3.8 1.4-7a21.4 21.4 0 0 1-5.6-1.1M28.4 29.1a30.6 30.6 0 0 1-1.7-5.9c-3.1-.1-5.6.7-7.1 2.3a6.3 6.3 0 0 0-1.9 3.1 23.6 23.6 0 0 1 9.2 1.9l2.4 1a23.4 23.4 0 0 1-.9-2.4M53.5 4.6C47 2.7 42 3 39.4 5.7s-2.5 4.4-2.3 7.9a44.4 44.4 0 0 1 5.2 1.5 81.3 81.3 0 0 1 16.6 9.2l11.5-11.6a77.1 77.1 0 0 0-16.9-8.1m-12 47l-12.9 13L0 93.3c1.8 1.2 3.7 2.4 5.6 3.8l4.2 2.9 28.9-29.1 9.5-9.5c-1.9-3.1-4.2-6.4-6.7-9.8" fill="#153e69"/><path d="M55.2 72.8c-2.4-6.3-6.8-14-13-22.2S31.7 34.8 29.4 28.7s-2.3-10.6-.1-12.8l7.2-7.3c-.9 3-.6 7 .8 11.5 1.9 6.7 6.1 14.6 12 23.1s10 16.3 11.9 22.8 1.6 11.4-1.1 14.1l-3.3 3.4c.6-2.8 0-6.4-1.6-10.7m35.1-53.6l10.8-10.9L92.9 0l-9 9c2.3 3.3 4.4 6.7 6.4 10.2" fill="#153e69"/><path d="M70.7 22.3L50.4 42.7c2.3 3.3 4.4 6.7 6.4 10.1l20.5-20.7c-1.9-3-4.1-6.4-6.6-9.8" fill="#153e69"/><path d="M84.3 43.4c1.6 4.3 2.2 8 1.6 10.8l7.7-7.8c2.7-2.7 3.1-7.7 1.1-14.2s-6-14.3-11.9-22.7l-1.7-2.6-11.7 11.7 1.9 2.7c6.1 8.2 10.6 15.9 13 22.1M17.4 40c-1.3-4.6-1.6-8.5-.7-11.6l-2.9 2.9c-2.2 2.1-2.1 6.7.2 12.8a90.2 90.2 0 0 0 9.3 17.1l3-3A75.3 75.3 0 0 1 17.4 40m-2.5 58.1a2 2 0 0 1 1.9-1.9 1.9 1.9 0 0 1 0 3.8 2 2 0 0 1-1.9-1.9m.2 0a1.6 1.6 0 0 0 1.7 1.6 1.6 1.6 0 0 0 1.6-1.6 1.7 1.7 0 0 0-1.7-1.7 1.7 1.7 0 0 0-1.6 1.7m1.7.2h-.4v.8h-.3v-2h.8c.5 0 .7.2.7.6a.5.5 0 0 1-.4.5l.4.9h-.4zm-.4-.9v.6h.4c.3 0 .4-.1.4-.3s-.1-.3-.4-.3zm166-20.5l3.6-10.3 3.5 10.3zm-10 11.6h6.1l2.3-6.7h10.3l2.2 6.7h6.7l-10.7-30.3h-6.2l-10.7 30.3zm-15.3-15.9v-8.9h4.5c4.2 0 5.7 1.6 5.7 4.4s-1.6 4.6-5.7 4.6zm-6.6 15.9h6.6V77.8h4.2c6 0 12.4-1.7 12.4-9.8s-5.8-9.7-12.3-9.7h-10.9v30.2zm-21.4-11.6l3.6-10.3h.1l3.4 10.3zm-10 11.6h6.1l2.3-6.7h10.3l2.2 6.7h6.7L136 58.2h-6.2l-10.7 30.3zm-19-11.6l3.5-10.3h.1l3.5 10.3zM90 88.5h6.1l2.4-6.7h10.2l2.3 6.7h6.7L107 58.2h-6.3L90 88.5z" fill="#153e69"/></svg>